<svg xmlns="http://www.w3.org/2000/svg" viewBox="0 0 64 64">
    <g>
        <path d="M13.11,12.27C16,5.71,28.78,1.88,36.43,3.31c11.85,2.22,19.88,8.94,23.38,20.52,2.64,8.72.69,18.39-4.74,22.83C62,32,60.47,19.61,47.93,9.8,42.71,5.72,36.48,4.31,29.86,4.9,23.46,5.46,18.17,8.51,13.11,12.27Z" />
        <path d="M52.37,50.07c-3,6.06-12,10.28-20.64,9.83-11.84-.62-20.34-6.49-25.37-17.23C2.49,34.41,3.65,21.56,9,16.9c1.22,1.2-.05,2.13-.47,3C1.12,34.2,8.9,53.7,27.1,57.65A25.24,25.24,0,0,0,46,54.49C47.94,53.32,49.75,51.9,52.37,50.07Z" />
        <path d="M35.55,26.93a10.84,10.84,0,0,0-5.72-.12c-1.13,5.58.4,11.45-1,17.68-1.35-3.68-1.57-13.26-.6-19.59a43.31,43.31,0,0,1,8.81,0v26.8c-3,.68-5.83.19-8.47.3-1.12-1.34-1.08-2.35-.17-3.49,1.8,2.14,4.11,2,7,1.36,0-3.76.1-7.64.12-11.51S35.55,30.9,35.55,26.93Z" />
        <path d="M28.24,11.13H37c.63,3,.35,5.87.19,8.95-2.94.94-5.82.39-8.92.37A16.6,16.6,0,0,1,28.24,11.13ZM29.56,13c0,2.18-.52,3.92.46,5.65,1.8.15,3.51.42,5.31-.25A14.86,14.86,0,0,0,35.27,13,15.46,15.46,0,0,0,29.56,13Z" />
    </g>
</svg>