<svg width="210" height="48" viewBox="0 0 210 48" fill="none" xmlns="http://www.w3.org/2000/svg">
<path d="M44.4317 9.10083C42.4642 9.10083 40.8635 10.7015 40.8635 12.6691C40.8635 14.0033 41.5999 15.1681 42.6872 15.7802L32.6152 26.4469L25.5432 15.8863C26.7403 15.3097 27.5685 14.0844 27.5685 12.6691C27.5685 10.7015 25.9678 9.10083 24.0002 9.10083C22.0326 9.10083 20.4319 10.7016 20.4319 12.6691C20.4319 14.0844 21.2601 15.3097 22.4572 15.8863L15.3848 26.4469L5.313 15.7803C6.40031 15.1681 7.13672 14.0035 7.13672 12.6692C7.13672 10.7016 5.53603 9.10092 3.5685 9.10092C1.60069 9.10083 0 10.7015 0 12.6691C0 14.3318 1.14309 15.7323 2.68462 16.1266L5.43 38.062C5.48991 38.5405 5.89659 38.8994 6.37884 38.8994H41.6213C42.1035 38.8994 42.5102 38.5404 42.5702 38.062L45.3155 16.1266C46.8569 15.7324 48 14.3319 48 12.6691C48 10.7015 46.3993 9.10083 44.4317 9.10083ZM22.344 12.6691C22.344 11.7561 23.0869 11.0131 24 11.0131C24.9131 11.0131 25.656 11.756 25.656 12.6691C25.656 13.5823 24.913 14.3251 24 14.3251C23.087 14.3251 22.344 13.5823 22.344 12.6691ZM3.56831 14.3251C2.65528 14.3251 1.91231 13.5823 1.91231 12.6691C1.91231 11.756 2.65528 11.0131 3.56831 11.0131C4.48134 11.0131 5.22422 11.756 5.22422 12.6691C5.22422 13.5824 4.48144 14.3251 3.56831 14.3251ZM40.7773 36.9871H7.22269L7.02647 35.4196H33.5062C34.0342 35.4196 34.4623 34.9915 34.4623 34.4634C34.4623 33.9353 34.0342 33.5072 33.5062 33.5072H6.78713L4.85672 18.0824L14.8172 28.6312C15.0169 28.8427 15.3013 28.9519 15.5919 28.9276C15.8818 28.9035 16.145 28.7486 16.3069 28.5068L24 17.0189L31.6931 28.5069C31.8549 28.7486 32.1181 28.9035 32.4081 28.9277C32.6968 28.9522 32.9831 28.8428 33.1828 28.6313L43.1433 18.0824L40.7773 36.9871ZM44.4317 14.3251C43.5186 14.3251 42.7758 13.5822 42.7758 12.6691C42.7758 11.7561 43.5187 11.0131 44.4317 11.0131C45.3447 11.0131 46.0877 11.756 46.0877 12.6691C46.0877 13.5824 45.3447 14.3251 44.4317 14.3251Z" fill="white"/>
<path d="M37.2408 33.5071H36.6466C36.1186 33.5071 35.6904 33.9351 35.6904 34.4632C35.6904 34.9913 36.1185 35.4194 36.6466 35.4194H37.2408C37.7688 35.4194 38.1969 34.9913 38.1969 34.4632C38.197 33.9351 37.7688 33.5071 37.2408 33.5071Z" fill="white"/>
<path d="M59.6855 17.5938H63.1582L68.2715 32.209L73.3848 17.5938H76.8574L69.666 37.5H66.877L59.6855 17.5938ZM57.8125 17.5938H61.2715L61.9004 31.8398V37.5H57.8125V17.5938ZM75.2715 17.5938H78.7441V37.5H74.6426V31.8398L75.2715 17.5938ZM86.4824 35.832L90.4062 22.707H94.6309L88.6836 39.7285C88.556 40.1022 88.3828 40.5033 88.1641 40.9316C87.9544 41.36 87.6673 41.7656 87.3027 42.1484C86.9473 42.5404 86.4961 42.8594 85.9492 43.1055C85.4115 43.3516 84.7507 43.4746 83.9668 43.4746C83.5931 43.4746 83.2878 43.4518 83.0508 43.4062C82.8138 43.3607 82.5312 43.2969 82.2031 43.2148V40.3301C82.3034 40.3301 82.4082 40.3301 82.5176 40.3301C82.627 40.3392 82.7318 40.3438 82.832 40.3438C83.3516 40.3438 83.7754 40.2845 84.1035 40.166C84.4316 40.0475 84.696 39.8652 84.8965 39.6191C85.097 39.3822 85.2565 39.0723 85.375 38.6895L86.4824 35.832ZM84.8418 22.707L88.0547 33.4258L88.6152 37.5957L85.9355 37.8828L80.6172 22.707H84.8418ZM104.051 27.9297H98.4453L98.418 26.5078H103.244C104.229 26.5078 105.067 26.3665 105.76 26.084C106.452 25.8014 106.977 25.3822 107.332 24.8262C107.697 24.2611 107.879 23.5684 107.879 22.748C107.879 21.9095 107.701 21.2168 107.346 20.6699C106.99 20.1139 106.457 19.7038 105.746 19.4395C105.035 19.1751 104.142 19.043 103.066 19.043H98.8828V37.5H97.2012V17.5938H103.066C104.078 17.5938 104.985 17.694 105.787 17.8945C106.589 18.0951 107.273 18.4095 107.838 18.8379C108.403 19.2663 108.831 19.8086 109.123 20.4648C109.424 21.112 109.574 21.8867 109.574 22.7891C109.574 23.6094 109.392 24.3522 109.027 25.0176C108.663 25.6738 108.148 26.2116 107.482 26.6309C106.826 27.041 106.038 27.2962 105.117 27.3965L104.051 27.9297ZM103.928 37.5H97.9121L98.7734 36.0645H103.928C104.912 36.0645 105.751 35.9004 106.443 35.5723C107.145 35.235 107.683 34.7565 108.057 34.1367C108.43 33.5169 108.617 32.7786 108.617 31.9219C108.617 31.1654 108.453 30.4863 108.125 29.8848C107.797 29.2832 107.296 28.8092 106.621 28.4629C105.947 28.1074 105.09 27.9297 104.051 27.9297H100.564L100.592 26.5078H105.527L105.828 27.0137C106.721 27.1048 107.501 27.3828 108.166 27.8477C108.84 28.3034 109.36 28.8822 109.725 29.584C110.098 30.2858 110.285 31.056 110.285 31.8945C110.285 33.0977 110.016 34.1185 109.479 34.957C108.95 35.7865 108.207 36.4199 107.25 36.8574C106.302 37.2858 105.195 37.5 103.928 37.5ZM122.986 34.8477V27.2188C122.986 26.5169 122.84 25.9108 122.549 25.4004C122.257 24.89 121.829 24.498 121.264 24.2246C120.699 23.9512 120.001 23.8145 119.172 23.8145C118.406 23.8145 117.723 23.9512 117.121 24.2246C116.529 24.4889 116.059 24.849 115.713 25.3047C115.376 25.7513 115.207 26.248 115.207 26.7949L113.566 26.7812C113.566 26.2253 113.703 25.6875 113.977 25.168C114.25 24.6484 114.637 24.1836 115.139 23.7734C115.64 23.3633 116.237 23.0397 116.93 22.8027C117.632 22.5566 118.402 22.4336 119.24 22.4336C120.298 22.4336 121.227 22.6113 122.029 22.9668C122.84 23.3223 123.474 23.8555 123.93 24.5664C124.385 25.2773 124.613 26.1706 124.613 27.2461V34.3965C124.613 34.9069 124.65 35.4355 124.723 35.9824C124.805 36.5293 124.919 36.9805 125.064 37.3359V37.5H123.328C123.219 37.1719 123.132 36.7617 123.068 36.2695C123.014 35.7682 122.986 35.2943 122.986 34.8477ZM123.369 28.8867L123.396 30.1445H120.184C119.345 30.1445 118.593 30.222 117.928 30.377C117.271 30.5228 116.715 30.7415 116.26 31.0332C115.804 31.3158 115.453 31.6576 115.207 32.0586C114.97 32.4596 114.852 32.9154 114.852 33.4258C114.852 33.9544 114.984 34.4375 115.248 34.875C115.521 35.3125 115.904 35.6634 116.396 35.9277C116.898 36.1829 117.49 36.3105 118.174 36.3105C119.085 36.3105 119.887 36.1419 120.58 35.8047C121.282 35.4674 121.861 35.0254 122.316 34.4785C122.772 33.9316 123.077 33.3346 123.232 32.6875L123.943 33.6309C123.825 34.0866 123.606 34.556 123.287 35.0391C122.977 35.513 122.572 35.9596 122.07 36.3789C121.569 36.7891 120.977 37.1263 120.293 37.3906C119.618 37.6458 118.853 37.7734 117.996 37.7734C117.03 37.7734 116.187 37.5911 115.467 37.2266C114.756 36.862 114.2 36.3652 113.799 35.7363C113.407 35.0983 113.211 34.3783 113.211 33.5762C113.211 32.847 113.366 32.1953 113.676 31.6211C113.986 31.0378 114.432 30.5456 115.016 30.1445C115.608 29.7344 116.319 29.4245 117.148 29.2148C117.987 28.9961 118.926 28.8867 119.965 28.8867H123.369ZM130.629 25.8652V37.5H129.002V22.707H130.561L130.629 25.8652ZM130.26 29.1875L129.535 28.7773C129.59 27.9023 129.768 27.082 130.068 26.3164C130.369 25.5508 130.775 24.8763 131.285 24.293C131.805 23.7096 132.411 23.2539 133.104 22.9258C133.805 22.5977 134.58 22.4336 135.428 22.4336C136.166 22.4336 136.827 22.5339 137.41 22.7344C137.993 22.9349 138.49 23.2539 138.9 23.6914C139.311 24.1289 139.62 24.6895 139.83 25.373C140.049 26.0566 140.158 26.8906 140.158 27.875V37.5H138.518V27.8613C138.518 26.8405 138.376 26.043 138.094 25.4688C137.811 24.8854 137.41 24.4707 136.891 24.2246C136.371 23.9785 135.756 23.8555 135.045 23.8555C134.261 23.8555 133.573 24.0286 132.98 24.375C132.397 24.7122 131.905 25.1543 131.504 25.7012C131.112 26.2389 130.811 26.8177 130.602 27.4375C130.392 28.0482 130.278 28.6315 130.26 29.1875ZM154.008 43.1875V25.5508L154.117 22.707H155.635V43.1875H154.008ZM143.74 30.2539V29.9668C143.74 28.8184 143.868 27.7839 144.123 26.8633C144.378 25.9336 144.752 25.1406 145.244 24.4844C145.745 23.819 146.347 23.3132 147.049 22.9668C147.76 22.6113 148.566 22.4336 149.469 22.4336C150.335 22.4336 151.105 22.5749 151.779 22.8574C152.454 23.14 153.033 23.5456 153.516 24.0742C154.008 24.6029 154.404 25.2318 154.705 25.9609C155.006 26.6901 155.225 27.5013 155.361 28.3945V32.0449C155.252 32.8835 155.047 33.6536 154.746 34.3555C154.454 35.0482 154.062 35.6543 153.57 36.1738C153.078 36.6842 152.486 37.0807 151.793 37.3633C151.109 37.6367 150.326 37.7734 149.441 37.7734C148.548 37.7734 147.746 37.5911 147.035 37.2266C146.333 36.862 145.736 36.347 145.244 35.6816C144.761 35.0072 144.387 34.2096 144.123 33.2891C143.868 32.3685 143.74 31.3568 143.74 30.2539ZM145.381 29.9668V30.2539C145.381 31.1198 145.467 31.9219 145.641 32.6602C145.823 33.3984 146.092 34.0456 146.447 34.6016C146.803 35.1576 147.254 35.5905 147.801 35.9004C148.357 36.2103 149.004 36.3652 149.742 36.3652C150.681 36.3652 151.474 36.1829 152.121 35.8184C152.768 35.4538 153.283 34.9707 153.666 34.3691C154.058 33.7676 154.34 33.1113 154.514 32.4004V28.1484C154.423 27.6836 154.268 27.2005 154.049 26.6992C153.83 26.1979 153.534 25.7331 153.16 25.3047C152.796 24.8672 152.335 24.5163 151.779 24.252C151.223 23.9785 150.553 23.8418 149.77 23.8418C149.022 23.8418 148.37 24.0013 147.814 24.3203C147.268 24.6302 146.812 25.0632 146.447 25.6191C146.092 26.1751 145.823 26.8223 145.641 27.5605C145.467 28.2988 145.381 29.1009 145.381 29.9668ZM169.484 34.082V22.707H171.125V37.5H169.553L169.484 34.082ZM169.785 31.3477L170.633 31.3203C170.633 32.25 170.523 33.1068 170.305 33.8906C170.086 34.6745 169.744 35.3581 169.279 35.9414C168.814 36.5247 168.213 36.9759 167.475 37.2949C166.736 37.6139 165.848 37.7734 164.809 37.7734C164.089 37.7734 163.428 37.6732 162.826 37.4727C162.234 37.263 161.723 36.9349 161.295 36.4883C160.867 36.0417 160.534 35.4629 160.297 34.752C160.069 34.041 159.955 33.1797 159.955 32.168V22.707H161.582V32.1953C161.582 32.9883 161.669 33.6491 161.842 34.1777C162.024 34.7064 162.27 35.1302 162.58 35.4492C162.899 35.7682 163.264 35.9961 163.674 36.1328C164.084 36.2695 164.526 36.3379 165 36.3379C166.203 36.3379 167.151 36.1055 167.844 35.6406C168.546 35.1758 169.042 34.5651 169.334 33.8086C169.635 33.043 169.785 32.2227 169.785 31.3477ZM181.119 37.7734C180.153 37.7734 179.264 37.5957 178.453 37.2402C177.651 36.8848 176.949 36.3835 176.348 35.7363C175.755 35.0892 175.295 34.3236 174.967 33.4395C174.648 32.5462 174.488 31.571 174.488 30.5137V29.9258C174.488 28.7865 174.657 27.7565 174.994 26.8359C175.331 25.9154 175.796 25.127 176.389 24.4707C176.981 23.8145 177.656 23.3132 178.412 22.9668C179.178 22.6113 179.98 22.4336 180.818 22.4336C181.757 22.4336 182.591 22.6022 183.32 22.9395C184.049 23.2676 184.66 23.737 185.152 24.3477C185.654 24.9492 186.032 25.6647 186.287 26.4941C186.542 27.3145 186.67 28.2214 186.67 29.2148V30.2129H175.473V28.8184H185.043V28.627C185.025 27.7975 184.856 27.0228 184.537 26.3027C184.227 25.5736 183.762 24.9811 183.143 24.5254C182.523 24.0697 181.748 23.8418 180.818 23.8418C180.126 23.8418 179.488 23.9876 178.904 24.2793C178.33 24.571 177.833 24.9902 177.414 25.5371C177.004 26.0749 176.685 26.7174 176.457 27.4648C176.238 28.2031 176.129 29.0234 176.129 29.9258V30.5137C176.129 31.334 176.247 32.0996 176.484 32.8105C176.73 33.5124 177.077 34.1322 177.523 34.6699C177.979 35.2077 178.517 35.627 179.137 35.9277C179.757 36.2285 180.44 36.3789 181.188 36.3789C182.062 36.3789 182.837 36.2194 183.512 35.9004C184.186 35.5723 184.792 35.0573 185.33 34.3555L186.355 35.1484C186.036 35.6224 185.635 36.0599 185.152 36.4609C184.678 36.862 184.109 37.181 183.443 37.418C182.778 37.6549 182.003 37.7734 181.119 37.7734ZM195.488 22.707V24.0469H188.078V22.707H195.488ZM190.799 18.9062H192.426V33.9043C192.426 34.5879 192.517 35.1029 192.699 35.4492C192.882 35.7956 193.118 36.028 193.41 36.1465C193.702 36.265 194.016 36.3242 194.354 36.3242C194.6 36.3242 194.837 36.3105 195.064 36.2832C195.292 36.2467 195.497 36.2103 195.68 36.1738L195.748 37.5547C195.548 37.6185 195.288 37.6686 194.969 37.7051C194.65 37.7507 194.331 37.7734 194.012 37.7734C193.383 37.7734 192.827 37.6595 192.344 37.4316C191.861 37.1947 191.482 36.7936 191.209 36.2285C190.936 35.6543 190.799 34.875 190.799 33.8906V18.9062ZM207.779 33.7266C207.779 33.3255 207.679 32.929 207.479 32.5371C207.278 32.1452 206.891 31.7852 206.316 31.457C205.751 31.1289 204.917 30.8509 203.814 30.623C202.994 30.4408 202.26 30.2357 201.613 30.0078C200.975 29.7799 200.438 29.5065 200 29.1875C199.562 28.8685 199.23 28.4857 199.002 28.0391C198.774 27.5924 198.66 27.0638 198.66 26.4531C198.66 25.9062 198.779 25.3913 199.016 24.9082C199.262 24.416 199.608 23.9876 200.055 23.623C200.51 23.2493 201.057 22.9577 201.695 22.748C202.342 22.5384 203.067 22.4336 203.869 22.4336C205.008 22.4336 205.984 22.6296 206.795 23.0215C207.615 23.4043 208.24 23.9284 208.668 24.5938C209.105 25.2591 209.324 26.0111 209.324 26.8496H207.697C207.697 26.3392 207.547 25.8561 207.246 25.4004C206.954 24.9447 206.521 24.571 205.947 24.2793C205.382 23.9876 204.689 23.8418 203.869 23.8418C203.021 23.8418 202.333 23.9694 201.805 24.2246C201.276 24.4798 200.889 24.8034 200.643 25.1953C200.406 25.5872 200.287 25.9928 200.287 26.4121C200.287 26.7402 200.337 27.041 200.438 27.3145C200.547 27.5788 200.738 27.8249 201.012 28.0527C201.294 28.2806 201.695 28.4948 202.215 28.6953C202.734 28.8958 203.409 29.0918 204.238 29.2832C205.432 29.5475 206.408 29.8711 207.164 30.2539C207.93 30.6276 208.495 31.0924 208.859 31.6484C209.224 32.1953 209.406 32.8607 209.406 33.6445C209.406 34.2552 209.279 34.8158 209.023 35.3262C208.768 35.8275 208.399 36.2604 207.916 36.625C207.442 36.9896 206.868 37.2721 206.193 37.4727C205.528 37.6732 204.781 37.7734 203.951 37.7734C202.702 37.7734 201.645 37.5684 200.779 37.1582C199.923 36.7389 199.271 36.1921 198.824 35.5176C198.387 34.834 198.168 34.1094 198.168 33.3438H199.795C199.85 34.1094 200.091 34.7155 200.52 35.1621C200.948 35.5996 201.472 35.9095 202.092 36.0918C202.721 36.2741 203.34 36.3652 203.951 36.3652C204.79 36.3652 205.492 36.2422 206.057 35.9961C206.622 35.75 207.05 35.4264 207.342 35.0254C207.633 34.6243 207.779 34.1914 207.779 33.7266Z" fill="white"/>
</svg>
