<svg xmlns="http://www.w3.org/2000/svg" viewBox="0 0 64 64">
    <g >
        <path d="M27.57,0a13.09,13.09,0,0,1,.69,2.32c.38,3.17,2,5.08,5.22,5.58,1.22.2,2.21.6,2.42,2a2.1,2.1,0,0,1-2,1.84c-3.34.52-5.24,2.39-5.69,5.77a2.7,2.7,0,0,1-1.88,2.11c-2.56-1.18-1.74-4.17-3.4-5.84-1.31-2-4.15-1.4-6-3.07-.07-4.17,4.76-2,5.64-4.22,1.88-2,1.64-4.62,3.05-6.47ZM26.33,17.2c1-3.82,3-6,7.19-7.39-4.38-1.18-5.78-3.87-7.69-7.07C25.5,7,22.66,8.35,19.35,10.23,23.43,11.07,25.08,13.34,26.33,17.2Z" />
        <path d="M59,37,40,43.78c-2.81-1.4-4-4.3-6.84-5.59l-5.65,5.34A5.47,5.47,0,0,1,23,41.85c1.44-1.06,2.85.28,4.39-.28,1.34-1.29,3-2.58,4-4.78-5.2-2.15-10.4-4-16-5.7l-4.3,5c2.73,2.12,6.6,2.12,9.27,4.53C16,40.46,12.24,38.43,7.85,37c3.75-4.67,6.86-9.1,13.25-9.32,0,1.56-1.72,1.36-2.09,2.57,4.45,2.31,9.41,3.36,14.22,5.48L47.8,30.5c-.14-1.51-2.09-1.21-1.94-2.85C52.09,27.78,55.08,32.37,59,37ZM35,37c2,2.07,3.21,3.75,5.22,5,5.25-1.8,10.62-3.35,16.11-6-1.93-1.8-3.14-3.53-5.19-4.73A159.79,159.79,0,0,0,35,37Z" />
        <path d="M50.29,14.62c-1.85,2.16-1.45,4.45-3.36,5.16C44.6,19,45.42,16.44,44,15.41c-1.16-1.54-3.48-1.06-4.61-2.8.29-2.69,3.23-1.78,4.25-3.15,1.68-1.22,1-3.93,3.12-4.69,2.29.78,1.58,3.28,2.93,4.33,1.19,1.53,3.55,1,4.61,2.9C53.94,14.61,50.93,13.58,50.29,14.62Zm.64-2.31A17.93,17.93,0,0,1,46.7,8c-.89,2-2.45,3.11-4.18,4.41a10.57,10.57,0,0,1,4.32,4A14.05,14.05,0,0,1,50.93,12.31Z" />
        <path d="M15.05,42c1.45,4.05.38,8.29,1.1,12.78,5.39,2.71,11.41,4.17,16.87,6.37,3.77-.63,6.86-2.71,10.48-2.68-2.84,2.4-6.44,2.94-10,4.5L14.71,56.21A68.75,68.75,0,0,1,15.05,42Z" />
        <path d="M32.9,58.19v-17C34.58,44.72,34.77,53.58,32.9,58.19Z" />
        <path d="M25.89,30.13c-2.36-4.16-5.43-7.71-8.54-11.75C21.41,19.83,25.46,25.39,25.89,30.13Z" />
        <path d="M52,42.1V55.74c-1.38,1.53-3.38,1.5-5.89,2.87,1-3,3.45-2.51,4.82-4.89V42.13Z" />
        <path d="M36.75,27.46a23.52,23.52,0,0,1,1.52-11.81A25,25,0,0,1,36.75,27.46Z" />
        <path d="M30.3,18.71c1.42,2.92.77,5.93.5,8.92C29.35,24.74,29.33,24.38,30.3,18.71Z" />
        <path d="M46.38,22l-5.29,8.66C41,27.09,41.64,25.8,46.38,22Z" />
        <path d="M11.4,9.48c1.28,1.19,1.36,2.09,0,3.33A3,3,0,0,1,11.4,9.48Z" />
        <path d="M6.71,14.22c.92-.62,1.85-.3,3-.24C8.25,15.42,8.25,15.42,6.71,14.22Z" />
        <path d="M16.84,14.52c-1.54,1.07-2.53,1.18-3.46.17C14.26,13.26,15.33,13.85,16.84,14.52Z" />
        <path d="M11.17,16c1.59,1.36,1.26,2.34.64,3.89C10.55,18.49,10.91,17.37,11.17,16Z" />
    </g>
</svg>