<svg xmlns="http://www.w3.org/2000/svg" viewBox="0 0 64 64">
    <g>
        <path d="M64,19c-2.54,1.75-5,3.71-8,4.46-.48.11-1.05.35-1.3-.22-.38-.87.39-1,1-1.27,2-.84,4-1.47,5.59-3a1.47,1.47,0,0,0,.4-1.24c-.33-.7-.8,0-1.16.13-11.13,4.89-22.86,5.36-34.69,4.63-5-.32-10.13-.75-15-2.33-1.55-.5-3.09-1.08-4.65-1.56-.91-.28-2-1.86-2.65-.53C3,19,4.62,19.81,5.65,20.34A39.07,39.07,0,0,0,18.34,24a91.8,91.8,0,0,0,31.28-.59,3.14,3.14,0,0,1,1-.1c.31,0,.79.18.84.37a.9.9,0,0,1-.69,1.09,54.55,54.55,0,0,1-12.66,1.47c-2,0-2.91.88-2.88,3q.14,8.73,0,17.47a3.15,3.15,0,0,0,2.58,3.58,7.41,7.41,0,0,1,3.61,2.51c1.5,1.87,1.2,3.71-.8,5.08-3.61,2.47-12.35,2.48-16.09,0-2.2-1.44-2.47-3.48-.58-5.39a12.53,12.53,0,0,1,2.81-2c1.27-.69,2.76-.93,3.42-2.57.33-.84,1-.57,1.2.31a18,18,0,0,0,.26,2c.13.41.5.92,1.1.68a1.19,1.19,0,0,0,.62-.65,4.77,4.77,0,0,0,.2-1.46q0-10,0-20a2.15,2.15,0,0,0-.11-1c-.2-.38-.31-1-1-.85a1,1,0,0,0-.86,1c-.1,1.32-.11,2.66-.12,4,0,3.66,0,7.32,0,11,0,.43-.29,1.22-.48,1.23-.82.06-1.08-.65-1.09-1.33-.05-2.5-.05-5-.05-7.49,0-1.49,0-3,0-4.49,0-4.49,0-4.58-4.64-4.76A62,62,0,0,1,10.6,23.9a48.93,48.93,0,0,1-5.94-2.31c-5-2.15-4.75-10.56,0-12.51,1.81-.74,3.47-1.89,5.49-2,.29,0,.58.23.87.36-.16.26-.27.64-.51.75C8.73,9,6.85,9.67,5.17,10.67c-3.06,1.81-3.06,3.63-.09,5.53,3.4,2.17,7.29,3,11.15,3.66a95.18,95.18,0,0,0,36.11-.81,22.6,22.6,0,0,0,7.8-2.87c2.62-1.73,2.59-3.64-.06-5.36a21.6,21.6,0,0,0-6.81-2.76c-11-2.7-22.05-2.69-33.18-1.55-1.92.2-3.82,1-5.77.21,1.51-2,3.75-1.41,5.74-1.7A91.45,91.45,0,0,1,51.79,6.1C56.35,7,60.61,8.55,64,12ZM32.48,58.17a26.87,26.87,0,0,0,4.32-.56c1.47-.43,3.67-.51,3.62-2.62s-2.13-2.65-3.74-3.41a1.78,1.78,0,0,0-2.16.56C33.43,53.2,32,53.45,31,52.5c-2-1.91-3.55-.74-5.12.46-2,1.53-1.82,3,.41,4A14.93,14.93,0,0,0,32.48,58.17Z" />
    </g>
</svg>