<svg xmlns="http://www.w3.org/2000/svg" viewBox="0 0 64 64">
    <g>
        <path d="M64,49.23a10.93,10.93,0,0,1-6.47,1.67c-2.78-.16-5.58.06-8.35-.07-1.76-.09-3.5-.52-5.43-.82a51.63,51.63,0,0,1-6.44.82c-10,.09-20,0-30,0-2.12,0-4.33.25-6-2.27V37.94c7.86-3.73,7.92-9,0-12.88V14.19C3.91,11.5,6.65,12,9.53,13.4l-6,.72C2.15,17.33,3,20.6,2.81,24c2.8,1.82,6.11,3.34,6,7.54-.11,3.84-2.6,5.77-5.74,7.13V48.4c3.67,1,33,1.24,38.63.31l1.94-4.42L45.4,49c2.58.1,5.15.22,7.72.27s5.23,0,7.46,0l3.42-3Z" />
        <path d="M64,43.32l-1.53-.54-.49-4c-3-1.64-6-3.39-5.79-7.58.16-3.86,3-5.52,5.83-7.07v-9.4c-3.41-1.19-10-1.4-16.52-.51l-2,4.39L41.75,14c-4.84-.56-9.73-.17-14.6-.26-4.66-.08-9.32-.07-14-.11l-.06-1a15.31,15.31,0,0,1,3-.5c9.12.31,18.3-.8,28.22.82,4.86-1.74,10.75-.72,16.58-.61,1,0,2,.91,3,1.39V25.6a20.11,20.11,0,0,0-3.55,1.33,5.27,5.27,0,0,0,0,9.15A21.39,21.39,0,0,0,64,37.42Z" />
        <path d="M36.13,31.8c-7,.58-14,.58-22.08.5C17.53,30.4,30.74,30.1,36.13,31.8Z" />
        <path d="M31.94,24a33.2,33.2,0,0,1-12.68.17A33.4,33.4,0,0,1,31.94,24Z" />
        <path d="M25,39.24H15.18v-.65H25Z" />
        <path d="M42.84,25.71l.34-3.7.89,0c0,1.14,0,2.27,0,3.41A6,6,0,0,1,42.84,25.71Z" />
        <path d="M44,36.72V40.9C42.67,39.68,42.35,38.48,44,36.72Z" />
        <path d="M36,39.23H29.56C32.32,37.76,34.17,38.41,36,39.23Z" />
        <path d="M43.2,33v-3.1l.8,0,.2,3.2Z" />
    </g>
</svg>